<svg xmlns="http://www.w3.org/2000/svg" height="48" viewBox="0 -960 960 960" width="48"><path d="M560-547v-48q33-12.8 67.5-20.4Q662-623 700-623q26 0 51 4t49 10v44q-24-9-48.5-13.5T700-583q-38 0-73 9.5T560-547Zm0 220v-49q33-12.3 67.5-19.65Q662-403 700-403q26 0 51 4t49 10v44q-24-9-48.5-13.5T700-363q-38 0-73 9t-67 27Zm0-110v-48q33-12.8 67.5-20.4Q662-513 700-513q26 0 51 4t49 10v44q-24-9-48.5-13.5T700-473q-38 0-73 9.5T560-437ZM248-273q53.912 0 104.956 12.5Q404-248 452-223v-426.255Q408-679 355.118-695.5 302.237-712 248.206-712 210-712 174-702.5t-73 23.466V-246q30-13 69.5-20t77.5-7Zm263 50q50.017-25 98.271-37.5Q657.526-273 711.794-273q38.206 0 78.706 6t68.5 16v-429.102Q825-698 787.678-705q-37.323-7-75.884-7-54.268 0-105.031 16.5Q556-679 511-649.255V-223Zm-26.821 115q-51.743-37.05-111.257-60.025T248-191q-33.439 0-66.003 9.452Q149.432-172.095 117-162q-32.45 17-65.225-1.16Q19-181.319 19-222v-459.692Q19-706 30-727.3q11-21.3 33-32.7 43.383-18.5 89.52-26.75 46.137-8.25 93.465-8.25 63.329 0 123.672 17.5Q430-760 482-723q52-36 110.358-54 58.358-18 121.697-18 47.103 0 93.024 9.5T896-760q22 11.4 33.5 32.7Q941-706 941-681v470q0 36.936-33.325 52.968Q874.35-142 842-162q-31.432-11.095-64.094-20.048Q745.245-191 711.705-191q-62.231 0-119.289 23.975T484.179-108ZM277-462Z"/></svg>